<svg xmlns="http://www.w3.org/2000/svg" viewBox="0 0 1200 720">
  <rect width="1200" height="720" fill="#efe7d6"/>
  <path d="M0 520C180 450 260 410 420 360C620 300 740 400 960 290C1080 230 1120 240 1200 210V720H0Z" fill="#cab898"/>
  <path d="M0 560C140 520 280 480 460 420C640 360 760 450 960 360C1050 320 1120 300 1200 290V720H0Z" fill="#8c7e64"/>
  <path d="M0 620C180 580 320 540 520 510C770 470 920 560 1200 470V720H0Z" fill="#5c5548"/>
  <circle cx="930" cy="150" r="64" fill="#d8c69e" opacity=".8"/>
</svg>
